<svg height="512" viewBox="0 0 128 128" width="512" xmlns="http://www.w3.org/2000/svg"><g><path d="m103.81 4.75h-71.481a1.751 1.751 0 0 0 -1.282.558l-8.138 8.749a1.748 1.748 0 0 0 -.469 1.192v106.251a1.75 1.75 0 0 0 1.75 1.75h79.62a1.75 1.75 0 0 0 1.75-1.75v-115a1.75 1.75 0 0 0 -1.75-1.75zm-1.75 115h-76.12v-103.812l7.151-7.688h68.969z"/><path d="m97.81 66.5a1.75 1.75 0 0 0 1.75-1.75v-16.375a1.75 1.75 0 0 0 -3.5 0v16.375a1.749 1.749 0 0 0 1.75 1.75z"/><path d="m81.492 31.18h6a1.75 1.75 0 0 0 1.75-1.75v-12a1.749 1.749 0 0 0 -1.75-1.75h-6a1.749 1.749 0 0 0 -1.75 1.75v12a1.75 1.75 0 0 0 1.75 1.75zm1.75-12h2.5v8.5h-2.5z"/><path d="m67.83 31.18h6a1.75 1.75 0 0 0 1.75-1.75v-12a1.749 1.749 0 0 0 -1.75-1.75h-6a1.749 1.749 0 0 0 -1.75 1.75v12a1.75 1.75 0 0 0 1.75 1.75zm1.75-12h2.5v8.5h-2.5z"/><path d="m54.169 31.18h6a1.75 1.75 0 0 0 1.75-1.75v-12a1.749 1.749 0 0 0 -1.75-1.75h-6a1.75 1.75 0 0 0 -1.75 1.75v12a1.751 1.751 0 0 0 1.75 1.75zm1.75-12h2.5v8.5h-2.5z"/><path d="m40.508 31.18h6a1.75 1.75 0 0 0 1.75-1.75v-12a1.749 1.749 0 0 0 -1.75-1.75h-6a1.75 1.75 0 0 0 -1.75 1.75v12a1.751 1.751 0 0 0 1.75 1.75zm1.75-12h2.5v8.5h-2.5z"/><path d="m43.508 114.25h40.984a4.756 4.756 0 0 0 4.75-4.75v-33.653a4.756 4.756 0 0 0 -4.75-4.75h-40.984a4.756 4.756 0 0 0 -4.75 4.75v33.653a4.756 4.756 0 0 0 4.75 4.75zm12.492-31.326v-8.324h16v8.327zm29.742 3.5v12.5h-43.484v-12.5zm-13.742 16v8.326h-16v-8.326zm-29.742 7.076v-7.076h10.242v8.326h-8.992a1.252 1.252 0 0 1 -1.25-1.25zm42.234 1.25h-8.992v-8.326h10.242v7.076a1.251 1.251 0 0 1 -1.25 1.25zm1.25-34.9v7.077h-10.242v-8.327h8.992a1.25 1.25 0 0 1 1.25 1.247zm-42.234-1.25h8.992v8.327h-10.242v-7.08a1.251 1.251 0 0 1 1.25-1.247z"/></g></svg>