<svg aria-hidden="true" style="position: absolute; width: 0; height: 0; overflow: hidden;" version="1.1" xmlns="http://www.w3.org/2000/svg" xmlns:xlink="http://www.w3.org/1999/xlink">
    <defs>
        <symbol id="cog" viewBox="0 0 32 32">
            <path d="M 13.1875 3 L 13.03125 3.8125 L 12.4375 6.78125 C 11.484375 7.15625 10.625 7.683594 9.84375 8.3125 L 6.9375 7.3125 L 6.15625 7.0625 L 5.75 7.78125 L 3.75 11.21875 L 3.34375 11.9375 L 3.9375 12.46875 L 6.1875 14.4375 C 6.105469 14.949219 6 15.460938 6 16 C 6 16.539063 6.105469 17.050781 6.1875 17.5625 L 3.9375 19.53125 L 3.34375 20.0625 L 3.75 20.78125 L 5.75 24.21875 L 6.15625 24.9375 L 6.9375 24.6875 L 9.84375 23.6875 C 10.625 24.316406 11.484375 24.84375 12.4375 25.21875 L 13.03125 28.1875 L 13.1875 29 L 18.8125 29 L 18.96875 28.1875 L 19.5625 25.21875 C 20.515625 24.84375 21.375 24.316406 22.15625 23.6875 L 25.0625 24.6875 L 25.84375 24.9375 L 26.25 24.21875 L 28.25 20.78125 L 28.65625 20.0625 L 28.0625 19.53125 L 25.8125 17.5625 C 25.894531 17.050781 26 16.539063 26 16 C 26 15.460938 25.894531 14.949219 25.8125 14.4375 L 28.0625 12.46875 L 28.65625 11.9375 L 28.25 11.21875 L 26.25 7.78125 L 25.84375 7.0625 L 25.0625 7.3125 L 22.15625 8.3125 C 21.375 7.683594 20.515625 7.15625 19.5625 6.78125 L 18.96875 3.8125 L 18.8125 3 Z M 14.8125 5 L 17.1875 5 L 17.6875 7.59375 L 17.8125 8.1875 L 18.375 8.375 C 19.511719 8.730469 20.542969 9.332031 21.40625 10.125 L 21.84375 10.53125 L 22.40625 10.34375 L 24.9375 9.46875 L 26.125 11.5 L 24.125 13.28125 L 23.65625 13.65625 L 23.8125 14.25 C 23.941406 14.820313 24 15.402344 24 16 C 24 16.597656 23.941406 17.179688 23.8125 17.75 L 23.6875 18.34375 L 24.125 18.71875 L 26.125 20.5 L 24.9375 22.53125 L 22.40625 21.65625 L 21.84375 21.46875 L 21.40625 21.875 C 20.542969 22.667969 19.511719 23.269531 18.375 23.625 L 17.8125 23.8125 L 17.6875 24.40625 L 17.1875 27 L 14.8125 27 L 14.3125 24.40625 L 14.1875 23.8125 L 13.625 23.625 C 12.488281 23.269531 11.457031 22.667969 10.59375 21.875 L 10.15625 21.46875 L 9.59375 21.65625 L 7.0625 22.53125 L 5.875 20.5 L 7.875 18.71875 L 8.34375 18.34375 L 8.1875 17.75 C 8.058594 17.179688 8 16.597656 8 16 C 8 15.402344 8.058594 14.820313 8.1875 14.25 L 8.34375 13.65625 L 7.875 13.28125 L 5.875 11.5 L 7.0625 9.46875 L 9.59375 10.34375 L 10.15625 10.53125 L 10.59375 10.125 C 11.457031 9.332031 12.488281 8.730469 13.625 8.375 L 14.1875 8.1875 L 14.3125 7.59375 Z M 16 11 C 13.25 11 11 13.25 11 16 C 11 18.75 13.25 21 16 21 C 18.75 21 21 18.75 21 16 C 21 13.25 18.75 11 16 11 Z M 16 13 C 17.667969 13 19 14.332031 19 16 C 19 17.667969 17.667969 19 16 19 C 14.332031 19 13 17.667969 13 16 C 13 14.332031 14.332031 13 16 13 Z"/>        
        </symbol>
    </defs>
    <defs>
        <symbol id="home" viewBox="0 0 50 50">
            <path d="M 24.962891 1.0546875 A 1.0001 1.0001 0 0 0 24.384766 1.2636719 L 1.3847656 19.210938 A 1.0005659 1.0005659 0 0 0 2.6152344 20.789062 L 4 19.708984 L 4 46 A 1.0001 1.0001 0 0 0 5 47 L 18.832031 47 A 1.0001 1.0001 0 0 0 19.158203 47 L 30.832031 47 A 1.0001 1.0001 0 0 0 31.158203 47 L 45 47 A 1.0001 1.0001 0 0 0 46 46 L 46 19.708984 L 47.384766 20.789062 A 1.0005657 1.0005657 0 1 0 48.615234 19.210938 L 41 13.269531 L 41 6 L 35 6 L 35 8.5859375 L 25.615234 1.2636719 A 1.0001 1.0001 0 0 0 24.962891 1.0546875 z M 25 3.3222656 L 44 18.148438 L 44 45 L 32 45 L 32 26 L 18 26 L 18 45 L 6 45 L 6 18.148438 L 25 3.3222656 z M 37 8 L 39 8 L 39 11.708984 L 37 10.146484 L 37 8 z M 20 28 L 30 28 L 30 45 L 20 45 L 20 28 z"/>
        </symbol>
    </defs>
    <defs>
        <symbol id="plus" viewBox="0 0 455 455">
            <polygon points="455,212.5 242.5,212.5 242.5,0 212.5,0 212.5,212.5 0,212.5 0,242.5 212.5,242.5 212.5,455 242.5,455 242.5,242.5 455,242.5 "/>
        </symbol>
    </defs>
    <defs>
        <symbol id="sort" viewBox="0 0 24 24">
            <path d="M13.4697 7.53033C13.7626 7.82322 14.2374 7.82322 14.5303 7.53033L15.25 6.81066L15.25 17C15.25 17.4142 15.5858 17.75 16 17.75C16.4142 17.75 16.75 17.4142 16.75 17L16.75 6.81066L17.4697 7.53033C17.7626 7.82322 18.2374 7.82322 18.5303 7.53033C18.8232 7.23744 18.8232 6.76256 18.5303 6.46967L16.5303 4.46967C16.2374 4.17678 15.7626 4.17678 15.4697 4.46967L13.4697 6.46967C13.1768 6.76256 13.1768 7.23744 13.4697 7.53033Z" fill="inherit"/>
            <path d="M8.75 17.1893L9.46967 16.4697C9.76256 16.1768 10.2374 16.1768 10.5303 16.4697C10.8232 16.7626 10.8232 17.2374 10.5303 17.5303L8.53033 19.5303C8.23744 19.8232 7.76256 19.8232 7.46967 19.5303L5.46967 17.5303C5.17678 17.2374 5.17678 16.7626 5.46967 16.4697C5.76256 16.1768 6.23744 16.1768 6.53033 16.4697L7.25 17.1893L7.25 7C7.25 6.58579 7.58579 6.25 8 6.25C8.41421 6.25 8.75 6.58579 8.75 7L8.75 17.1893Z" fill="inherit"/>
        </symbol>
    </defs>
</svg>