<svg aria-hidden="true" style="position: absolute; width: 0; height: 0; overflow: hidden;" version="1.1" xmlns="http://www.w3.org/2000/svg" xmlns:xlink="http://www.w3.org/1999/xlink">    
    <defs>
        <symbol id="home" viewBox="0 0 172 172">
           <path d="M86,15.0472l-78.83333,70.9528h21.5v64.5h50.16667v-43h14.33333v43h50.16667v-64.5h21.5zM86,34.33561l43,38.7028v5.79492v57.33333h-21.5v-43h-43v43h-21.5v-63.12826z"></path>
        </symbol>
    </defs>
    <defs>
        <symbol id="calendar" viewBox="0 0 172 172">
          <path d="M43,0c-23.65,0 -43,19.35 -43,43c0,23.65 19.35,43 43,43c23.65,0 43,-19.35 43,-43c0,-23.65 -19.35,-43 -43,-43zM43,14.33333c15.76667,0 28.66667,12.9 28.66667,28.66667c0,15.76667 -12.9,28.66667 -28.66667,28.66667c-15.76667,0 -28.66667,-12.9 -28.66667,-28.66667c0,-15.76667 12.9,-28.66667 28.66667,-28.66667zM114.66667,14.33333v14.33333h-16.20899c1.1825,4.58667 1.87565,9.374 1.87565,14.33333h35.83333v14.33333h-37.70899c-1.3115,5.08833 -3.27808,9.89717 -5.85091,14.33333h43.5599l0.014,71.66667h-100.34733v-43.48991c-5.0095,-0.6235 -9.81117,-1.88865 -14.33333,-3.72331v47.21322c0,7.90483 6.4285,14.33333 14.33333,14.33333h100.33333c7.90483,0 14.33333,-6.4285 14.33333,-14.33333v-100.33333c0,-7.90483 -6.4285,-14.33333 -14.33333,-14.33333h-7.16667v-14.33333zM49.4528,22.92773l-12.19173,20.78613l15.77506,15.77506l6.4528,-7.16667l-10.75,-10.03613l8.5944,-15.0472z"></path>
        </symbol>
    </defs>
    <defs>
        <symbol id="todo" viewBox="0 0 172 172">
         <path d="M136.16667,21.5h-29.98533c-2.95983,-8.33483 -10.836,-14.33333 -20.18133,-14.33333c-9.34533,0 -17.2215,5.9985 -20.18133,14.33333h-29.98533c-7.91917,0 -14.33333,6.41417 -14.33333,14.33333v100.33333c0,7.91917 6.41417,14.33333 14.33333,14.33333h100.33333c7.91917,0 14.33333,-6.41417 14.33333,-14.33333v-100.33333c0,-7.91917 -6.41417,-14.33333 -14.33333,-14.33333zM86,21.5c3.956,0 7.16667,3.21067 7.16667,7.16667c0,3.956 -3.21067,7.16667 -7.16667,7.16667c-3.956,0 -7.16667,-3.21067 -7.16667,-7.16667c0,-3.956 3.21067,-7.16667 7.16667,-7.16667zM64.5,121.83333h-14.33333v-14.33333l44.04633,-44.04633l14.33333,14.33333zM120.787,65.54633l-7.16667,7.16667l-14.33333,-14.33333l7.16667,-7.16667c1.3975,-1.3975 3.66933,-1.3975 5.06683,0l9.2665,9.2665c1.3975,1.40467 1.3975,3.66933 0,5.06683zM136.16667,136.16667h-100.33333v-100.33333h100.33333z"></path>
        </symbol>
    </defs>
    <defs>
        <symbol id="notes" viewBox="0 0 172 172">
            <path d="M136.16667,21.5h-100.33333c-7.91917,0 -14.33333,6.41417 -14.33333,14.33333v100.33333c0,7.91917 6.41417,14.33333 14.33333,14.33333h71.66667l43,-43v-71.66667c0,-7.91917 -6.41417,-14.33333 -14.33333,-14.33333zM136.16667,100.33333h-35.83333v35.83333h-64.5v-100.33333h100.33333z"></path>
        </symbol>
    </defs>
    <defs>
        <symbol id="messages" viewBox="0 0 172 172">
            <g fill="none" fill-rule="nonzero" stroke="none" stroke-width="1" stroke-linecap="butt" stroke-linejoin="miter" stroke-miterlimit="10" stroke-dasharray="" stroke-dashoffset="0" font-family="none" font-weight="none" font-size="none" text-anchor="none" style="mix-blend-mode: normal"><path d="M0,172v-172h172v172z" fill="none"></path><g fill="#000000"><path d="M41.28,13.76c-9.44436,0 -17.2,7.75564 -17.2,17.2c-9.44436,0 -17.2,7.75563 -17.2,17.2v72.24c0,9.44437 7.75564,17.2 17.2,17.2h13.3636c-0.14187,3.35717 -0.1978,6.77283 -1.05485,9.22485c-1.17668,3.36647 -3.08872,6.00169 -7.19578,8.46562c-1.32462,0.79567 -1.95624,2.37688 -1.54437,3.8662c0.41187,1.48932 1.76618,2.52132 3.3114,2.52333c13.15383,0 28.58416,-6.09055 36.3686,-24.08h63.3914c9.44437,0 17.2,-7.75563 17.2,-17.2c9.44437,0 17.2,-7.75563 17.2,-17.2v-72.24c0,-9.44436 -7.75563,-17.2 -17.2,-17.2zM41.28,20.64h106.64c5.69163,0 10.32,4.62836 10.32,10.32v72.24c0,5.69163 -4.62837,10.32 -10.32,10.32v-65.36c0,-9.44437 -7.75563,-17.2 -17.2,-17.2h-99.76c0,-5.69164 4.62837,-10.32 10.32,-10.32zM24.08,37.84h106.64c5.69163,0 10.32,4.62837 10.32,10.32v72.24c0,5.69163 -4.62837,10.32 -10.32,10.32h-65.36c-1.44431,-0.00046 -2.73514,0.90124 -3.23172,2.2575c-4.73837,12.92389 -13.03342,18.61169 -21.82922,20.72735c0.9776,-1.49773 2.01634,-2.97723 2.58672,-4.60906c1.6381,-4.68657 1.83422,-9.67144 1.83422,-14.93578c-0.00019,-1.89978 -1.54022,-3.43981 -3.44,-3.44h-17.2c-5.69164,0 -10.32,-4.62837 -10.32,-10.32v-72.24c0,-5.69163 4.62836,-10.32 10.32,-10.32z"></path></g></g>
        </symbol>
    </defs>
    <defs>
        <symbol id="transactions" viewBox="0 0 172 172">
          <path d="M141.96719,42.98186h-16.34672v-15.32782c0.00015,-5.45503 -2.64878,-10.57039 -7.10386,-13.71834c-4.45508,-3.14795 -10.16141,-3.93637 -15.30317,-2.11439l-87.73814,31.08127l0.13437,0.37726c-1.2053,0.54181 -1.98099,1.73992 -1.98203,3.0614v98.01581c0.01055,9.27228 7.52459,16.78632 16.79688,16.79688h111.54267c9.27228,-0.01055 16.78632,-7.52459 16.79688,-16.79687v-84.57831c-0.01055,-9.27228 -7.52459,-16.78632 -16.79687,-16.79687zM105.46019,18.15608c3.08451,-1.09201 6.50719,-0.61857 9.17944,1.26975c2.67226,1.88832 4.26143,4.95644 4.26209,8.22855v15.32748h-83.5275zM141.96719,154.43517h-111.54301c-5.56339,-0.00629 -10.07183,-4.51474 -10.07812,-10.07812v-94.65644h121.62113c5.56339,0.00629 10.07183,4.51474 10.07813,10.07813v16.88455h-26.96436c-9.27228,0.01055 -16.78632,7.52459 -16.79687,16.79688v19.1649c0.01055,9.27228 7.52459,16.78632 16.79688,16.79688h26.96436v14.93511c-0.00629,5.56339 -4.51474,10.07183 -10.07812,10.07813zM152.04531,83.38204v39.32115h-26.96436c-5.56339,-0.00629 -10.07183,-4.51474 -10.07812,-10.07812v-19.1649c0.00629,-5.56339 4.51474,-10.07183 10.07813,-10.07812z"></path>
        </symbol>
    </defs>
    <defs>
        <symbol id="bell" viewBox="0 0 172 172">
            <path d="M86,0c-7.56531,0 -13.76,6.19469 -13.76,13.76c0,1.77375 0.34938,3.49375 0.9675,5.0525c-19.35,5.02563 -31.9275,21.83594 -31.9275,43.1075c0,26.94219 -6.61125,39.21063 -12.9,46.1175c-3.14437,3.45344 -6.24844,5.54969 -8.9225,7.525c-1.34375,0.98094 -2.56656,1.96188 -3.655,3.225c-1.08844,1.26313 -2.0425,3.06375 -2.0425,5.0525c0,4.73 2.9025,8.74781 6.9875,11.395c4.085,2.64719 9.44656,4.35375 15.91,5.6975c8.385,1.73344 18.73188,2.64719 30.1,3.1175c-0.86,2.28438 -1.3975,4.74344 -1.3975,7.31c0,11.35469 9.28531,20.64 20.64,20.64c11.35469,0 20.64,-9.28531 20.64,-20.64c0,-2.58 -0.52406,-5.03906 -1.3975,-7.31c11.36813,-0.47031 21.715,-1.38406 30.1,-3.1175c6.46344,-1.34375 11.825,-3.05031 15.91,-5.6975c4.085,-2.64719 6.9875,-6.665 6.9875,-11.395c0,-1.98875 -0.95406,-3.78937 -2.0425,-5.0525c-1.08844,-1.26312 -2.31125,-2.24406 -3.655,-3.225c-2.67406,-1.97531 -5.77812,-4.07156 -8.9225,-7.525c-6.28875,-6.90687 -12.9,-19.17531 -12.9,-46.1175c0,-21.25812 -12.60437,-38.055 -31.9275,-43.1075c0.61813,-1.55875 0.9675,-3.27875 0.9675,-5.0525c0,-7.56531 -6.19469,-13.76 -13.76,-13.76zM86,6.88c3.84313,0 6.88,3.03688 6.88,6.88c0,3.84313 -3.03687,6.88 -6.88,6.88c-3.84312,0 -6.88,-3.03687 -6.88,-6.88c0,-3.84312 3.03688,-6.88 6.88,-6.88zM94.0625,24.725c18.34219,3.26531 29.7775,17.44188 29.7775,37.195c0,28.09781 7.14875,42.52969 14.62,50.74c3.73563,4.09844 7.51156,6.665 9.9975,8.4925c1.23625,0.91375 2.16344,1.67969 2.58,2.15c0.41656,0.47031 0.3225,0.43 0.3225,0.5375c0,2.15 -0.99437,3.72219 -3.87,5.59c-2.87562,1.86781 -7.55187,3.60125 -13.545,4.8375c-11.98625,2.48594 -29.05187,3.3325 -47.945,3.3325c-18.89312,0 -35.95875,-0.84656 -47.945,-3.3325c-5.99312,-1.23625 -10.66937,-2.96969 -13.545,-4.8375c-2.87562,-1.86781 -3.87,-3.44 -3.87,-5.59c0,-0.1075 -0.09406,-0.06719 0.3225,-0.5375c0.41656,-0.47031 1.34375,-1.23625 2.58,-2.15c2.48594,-1.8275 6.26188,-4.39406 9.9975,-8.4925c7.47125,-8.21031 14.62,-22.64219 14.62,-50.74c0,-19.73969 11.44875,-33.80875 29.7775,-37.0875c2.28438,1.67969 5.03906,2.6875 8.0625,2.6875c3.05031,0 5.77813,-1.08844 8.0625,-2.795zM74.175,144.265c3.85656,0.08063 7.78031,0.215 11.825,0.215c4.04469,0 7.96844,-0.13437 11.825,-0.215c1.22281,2.06938 1.935,4.515 1.935,7.095c0,7.64594 -6.11406,13.76 -13.76,13.76c-7.64594,0 -13.76,-6.11406 -13.76,-13.76c0,-2.60687 0.68531,-5.02562 1.935,-7.095z"></path>
        </symbol>
    </defs>
    <defs>
        <symbol id="user" viewBox="0 0 172 172">
           <g fill="none" fill-rule="nonzero" stroke="none" stroke-width="1" stroke-linecap="butt" stroke-linejoin="miter" stroke-miterlimit="10" stroke-dasharray="" stroke-dashoffset="0" font-family="none" font-weight="none" font-size="none" text-anchor="none" style="mix-blend-mode: normal"><path d="M0,172v-172h172v172z" fill="none"></path><g fill="#000000"><path d="M86,10.32c-19.04094,0 -34.4,15.35906 -34.4,34.4v20.64c0,11.13969 5.45563,21.13719 13.76,27.4125v15.5875c0,0.36281 -0.06719,0.67188 -0.9675,1.505c-0.90031,0.83313 -2.49937,1.94844 -4.6225,3.01c-4.23281,2.12313 -10.34687,4.3 -16.555,7.31c-6.20812,3.01 -12.64469,6.83969 -17.63,12.3625c-4.98531,5.52281 -8.385,12.92688 -8.385,22.2525v3.44h137.6v-3.44c0,-9.40625 -3.39969,-16.83719 -8.385,-22.36c-4.98531,-5.52281 -11.42187,-9.28531 -17.63,-12.255c-6.20812,-2.96969 -12.33562,-5.21375 -16.555,-7.31c-2.10969,-1.04812 -3.73562,-2.06937 -4.6225,-2.9025c-0.88687,-0.83312 -0.9675,-1.1825 -0.9675,-1.6125v-15.5875c8.30438,-6.27531 13.76,-16.27281 13.76,-27.4125v-20.64c0,-19.04094 -15.35906,-34.4 -34.4,-34.4zM86,17.2c15.35906,0 27.52,12.16094 27.52,27.52v20.64c0,9.48688 -4.95844,18.03313 -12.255,22.8975l-1.505,1.075v19.0275c0,2.66063 1.37063,5.01219 3.1175,6.665c1.74688,1.65281 3.93719,2.88906 6.3425,4.085c4.81063,2.39188 10.72313,4.515 16.555,7.31c5.83188,2.795 11.43531,6.16781 15.48,10.6425c3.35938,3.70875 5.30781,8.46563 6.02,14.2975h-122.55c0.71219,-5.76469 2.67406,-10.46781 6.02,-14.19c4.04469,-4.48812 9.64813,-7.91469 15.48,-10.75c5.83188,-2.83531 11.75781,-5.02562 16.555,-7.4175c2.39188,-1.19594 4.60906,-2.45906 6.3425,-4.085c1.73344,-1.62594 3.1175,-3.91031 3.1175,-6.5575v-19.0275l-1.505,-1.075c-7.29656,-4.86437 -12.255,-13.41062 -12.255,-22.8975v-20.64c0,-15.35906 12.16094,-27.52 27.52,-27.52z"></path></g></g>
        </symbol>
    </defs>

    <!-- START WEATHER ICONS -->
    <defs>
        <symbol id="clear" viewBox="0 0 172 172">
           <path d="M78.83333,0v21.5h14.33333v-21.5zM30.26237,20.12826l-10.13411,10.13411l15.20117,15.20117l10.13411,-10.13411zM141.73763,20.12826l-15.20117,15.20117l10.13411,10.13411l15.20117,-15.20117zM86,35.83333c-27.6214,0 -50.16667,22.54527 -50.16667,50.16667c0,27.6214 22.54527,50.16667 50.16667,50.16667c27.6214,0 50.16667,-22.54527 50.16667,-50.16667c0,-27.6214 -22.54527,-50.16667 -50.16667,-50.16667zM86,50.16667c19.87509,0 35.83333,15.95824 35.83333,35.83333c0,19.87509 -15.95825,35.83333 -35.83333,35.83333c-19.87509,0 -35.83333,-15.95825 -35.83333,-35.83333c0,-19.87509 15.95824,-35.83333 35.83333,-35.83333zM0,78.83333v14.33333h21.5v-14.33333zM150.5,78.83333v14.33333h21.5v-14.33333zM35.32943,126.53646l-15.20117,15.20117l10.13411,10.13411l15.20117,-15.20117zM136.67057,126.53646l-10.13411,10.13411l15.20117,15.20117l10.13411,-10.13411zM78.83333,150.5v21.5h14.33333v-21.5z"></path>
        </symbol>
    </defs>

    <defs>
        <symbol id="partly-cloudy" viewBox="0 0 172 172">
            <path d="M114.66667,21.5v15.36914c-2.58808,0.67857 -5.00949,1.74386 -7.26465,3.06543l-10.90397,-10.90397l-10.13412,10.13412l10.84798,10.84798c-0.70363,1.18155 -1.34644,2.39565 -1.87565,3.68132c-5.05608,-2.20904 -10.59028,-3.52734 -16.50293,-3.52734c-15.53073,0 -28.16644,9.0996 -35.72135,21.514c-0.05908,-0.00053 -0.05145,-0.014 -0.11198,-0.014c-19.70487,0 -35.83333,16.12847 -35.83333,35.83333c0,19.70486 16.12847,35.83333 35.83333,35.83333h71.66667c15.74756,0 28.66667,-12.91911 28.66667,-28.66667c0,-9.72836 -5.07442,-18.03667 -12.61166,-23.06771c1.94829,-0.64592 3.77753,-1.53824 5.51498,-2.56152l10.93196,10.93197l10.13412,-10.13412l-10.90398,-10.90397c1.33119,-2.24822 2.38558,-4.67169 3.06543,-7.26465h15.36914v-14.33333h-15.36914c-0.67945,-2.59143 -1.72165,-5.02877 -3.05143,-7.27865l10.88997,-10.88997l-10.13412,-10.13412l-10.88997,10.88997c-2.24987,-1.32979 -4.68722,-2.37198 -7.27865,-3.05143v-15.36914zM121.83333,50.16667c8.00277,0 14.33333,6.33056 14.33333,14.33333c0,8.00277 -6.33056,14.33333 -14.33333,14.33333h-3.34538c-2.27112,-6.42775 -5.98032,-12.13925 -10.736,-16.76888c1.14013,-6.80689 6.91565,-11.89779 14.08138,-11.89779zM78.83333,64.5c15.91269,0 28.66667,12.75398 28.66667,28.66667v7.16667h7.16667c8.00277,0 14.33333,6.33056 14.33333,14.33333c0,8.00277 -6.33056,14.33333 -14.33333,14.33333h-71.66667c-11.95747,0 -21.5,-9.54253 -21.5,-21.5c0,-11.95747 9.54253,-21.5 21.5,-21.5c0.04021,0 0.71025,0.10926 2.1696,0.25195l5.22103,0.51791l2.07161,-4.8291c4.37061,-10.23629 14.46242,-17.44076 26.37109,-17.44076z"></path>
        </symbol>
    </defs>

    <defs>
        <symbol id="cloudy" viewBox="0 0 172 172">
            <path d="M60.91667,150.5c-16.62667,0 -31.347,-10.535 -36.94417,-26.00783c-14.67017,-7.20967 -23.9725,-21.95867 -23.9725,-38.49217c0,-23.7145 19.2855,-43 43,-43c0.61633,0 1.2255,0.0215 1.81317,0.05733c9.32383,-13.40883 24.69633,-21.55733 41.18683,-21.55733c22.3385,0 41.839,14.99983 48.0525,35.905c20.64,-1.51933 37.9475,15.308 37.9475,35.76167c0,19.7585 -16.07483,35.83333 -35.83333,35.83333c-1.70567,0 -3.43283,-0.14333 -5.19583,-0.43c-5.84083,9.13033 -15.90283,14.76333 -27.05417,14.76333c-5.45383,0 -10.78583,-1.41183 -15.53017,-4.05633c-7.30283,7.12367 -17.157,11.223 -27.46983,11.223zM43,57.33333c-15.80967,0 -28.66667,12.857 -28.66667,28.66667c0,11.79633 7.12367,22.23817 18.146,26.5955l3.3755,1.333l0.9245,3.5045c2.89533,11.0295 12.82117,18.73367 24.13733,18.73367c8.07683,0 15.7165,-3.9775 20.43933,-10.6425l4.65833,-6.579l5.99133,5.3965c2.35783,2.12133 6.3425,4.65833 11.911,4.65833c7.3745,0 13.89617,-4.45767 16.6195,-11.36633l2.48683,-6.2995l6.4285,2.1285c2.45817,0.80983 4.65833,1.204 6.71517,1.204c11.85367,0 21.5,-9.64633 21.5,-21.5c0,-11.85367 -9.64633,-21.5 -21.5,-21.5c-1.69133,0 -3.51167,0.28667 -5.71183,0.89583l-7.8905,2.20017l-1.13233,-8.1055c-2.45817,-17.57267 -17.68733,-30.82383 -35.432,-30.82383c-12.95017,0 -24.93283,7.04483 -31.27533,18.3825l-2.43667,4.35017l-4.9235,-0.76683c-1.43333,-0.22217 -2.87383,-0.46583 -4.3645,-0.46583z"></path>
        </symbol>
    </defs>

    <defs>
        <symbol id="overcast" viewBox="0 0 172 172">
            <path d="M60.91667,150.5c-16.62667,0 -31.347,-10.535 -36.94417,-26.00783c-14.67017,-7.20967 -23.9725,-21.95867 -23.9725,-38.49217c0,-23.7145 19.2855,-43 43,-43c0.61633,0 1.2255,0.0215 1.81317,0.05733c9.32383,-13.40883 24.69633,-21.55733 41.18683,-21.55733c22.3385,0 41.839,14.99983 48.0525,35.905c20.64,-1.51933 37.9475,15.308 37.9475,35.76167c0,19.7585 -16.07483,35.83333 -35.83333,35.83333c-1.70567,0 -3.43283,-0.14333 -5.19583,-0.43c-5.84083,9.13033 -15.90283,14.76333 -27.05417,14.76333c-5.45383,0 -10.78583,-1.41183 -15.53017,-4.05633c-7.30283,7.12367 -17.157,11.223 -27.46983,11.223zM43,57.33333c-15.80967,0 -28.66667,12.857 -28.66667,28.66667c0,11.79633 7.12367,22.23817 18.146,26.5955l3.3755,1.333l0.9245,3.5045c2.89533,11.0295 12.82117,18.73367 24.13733,18.73367c8.07683,0 15.7165,-3.9775 20.43933,-10.6425l4.65833,-6.579l5.99133,5.3965c2.35783,2.12133 6.3425,4.65833 11.911,4.65833c7.3745,0 13.89617,-4.45767 16.6195,-11.36633l2.48683,-6.2995l6.4285,2.1285c2.45817,0.80983 4.65833,1.204 6.71517,1.204c11.85367,0 21.5,-9.64633 21.5,-21.5c0,-11.85367 -9.64633,-21.5 -21.5,-21.5c-1.69133,0 -3.51167,0.28667 -5.71183,0.89583l-7.8905,2.20017l-1.13233,-8.1055c-2.45817,-17.57267 -17.68733,-30.82383 -35.432,-30.82383c-12.95017,0 -24.93283,7.04483 -31.27533,18.3825l-2.43667,4.35017l-4.9235,-0.76683c-1.43333,-0.22217 -2.87383,-0.46583 -4.3645,-0.46583z"></path>
        </symbol>
    </defs>

    <defs>
        <symbol id="light-rain" viewBox="0 0 172 172">
            <path d="M86,21.5c-20.726,0 -38.68164,11.74012 -47.64714,28.91862c-21.5645,2.322 -38.35286,20.57438 -38.35286,42.74805c0,21.29933 15.5015,38.93762 35.83333,42.35612v-14.71126c-12.33383,-3.2035 -21.5,-14.32202 -21.5,-27.64486c0,-14.67733 10.98258,-26.92237 25.54525,-28.4847l7.62858,-0.82585l3.54134,-6.80273c6.837,-13.08633 20.23833,-21.22005 34.9515,-21.22005c18.75517,0 35.00614,13.33593 38.64681,31.7041l2.1276,10.736l10.91797,0.78385c11.2015,0.7955 19.97428,10.14621 19.97428,21.27604c0,11.85367 -9.64633,21.5 -21.5,21.5v14.33333c19.78717,0 35.83333,-16.04617 35.83333,-35.83333c0,-18.92 -14.70264,-34.25555 -33.28581,-35.58138c-4.8805,-24.6605 -26.62036,-43.25195 -52.71419,-43.25195zM78.83333,93.16667v43h14.33333v-43zM50.16667,107.5v50.16667h14.33333v-50.16667zM107.5,114.66667v43h14.33333v-43z"></path>
        </symbol>
    </defs>

     <defs>
        <symbol id="rain" viewBox="0 0 172 172">
            <path d="M86,21.5c-20.726,0 -38.68164,11.74012 -47.64714,28.91862c-21.5645,2.322 -38.35286,20.57438 -38.35286,42.74805c0,21.29933 15.5015,38.93762 35.83333,42.35612v-14.71126c-12.33383,-3.2035 -21.5,-14.32202 -21.5,-27.64486c0,-14.67733 10.98258,-26.92237 25.54525,-28.4847l7.62858,-0.82585l3.54134,-6.80273c6.837,-13.08633 20.23833,-21.22005 34.9515,-21.22005c18.75517,0 35.00614,13.33593 38.64681,31.7041l2.1276,10.736l10.91797,0.78385c11.2015,0.7955 19.97428,10.14621 19.97428,21.27604c0,11.85367 -9.64633,21.5 -21.5,21.5v14.33333c19.78717,0 35.83333,-16.04617 35.83333,-35.83333c0,-18.92 -14.70264,-34.25555 -33.28581,-35.58138c-4.8805,-24.6605 -26.62036,-43.25195 -52.71419,-43.25195zM78.83333,93.16667v43h14.33333v-43zM50.16667,107.5v50.16667h14.33333v-50.16667zM107.5,114.66667v43h14.33333v-43z"></path>
        </symbol>
    </defs>
    <defs>
        <symbol id="thunder" viewBox="0 0 172 172">
            <path d="M86,21.5c-20.726,0 -38.68164,11.74012 -47.64714,28.91862c-21.5645,2.322 -38.35286,20.57438 -38.35286,42.74805c0,23.75033 19.24967,43 43,43h4.26921l5.30501,-7.95052l4.25521,-6.38281h-13.82943c-15.80967,0 -28.66667,-12.857 -28.66667,-28.66667c0,-14.67733 10.98258,-26.92237 25.54525,-28.4847l7.62858,-0.82585l3.54134,-6.80273c6.837,-13.08633 20.23833,-21.22005 34.9515,-21.22005c18.75517,0 35.00614,13.33593 38.64681,31.7041l2.1276,10.736l10.91797,0.78385c11.2015,0.7955 19.97428,10.14621 19.97428,21.27604c0,11.85367 -9.64633,21.5 -21.5,21.5h-4.2692l-5.30502,7.95052l-4.25521,6.38281h13.82943c19.78717,0 35.83333,-16.04617 35.83333,-35.83333c0,-18.92 -14.70264,-34.25555 -33.28581,-35.58138c-4.8805,-24.6605 -26.62036,-43.25195 -52.71419,-43.25195zM93.16667,93.16667l-28.66667,43h21.5v28.66667l28.66667,-43h-21.5z"></path>
        </symbol>
    </defs>
    <!-- END WEATER ICONS -->
    <defs>
        <symbol id="expand" viewBox="0 0 172 172">
            <path d="M21.5,21.5v43l16.43294,-16.43294l25.7972,25.7972l10.13412,-10.13412l-25.7972,-25.7972l16.43294,-16.43294zM107.5,21.5l16.43294,16.43294l-25.79721,25.7972l10.13412,10.13412l25.7972,-25.7972l16.43294,16.43294v-43zM63.73014,98.13574l-25.7972,25.79721l-16.43294,-16.43294v43h43l-16.43294,-16.43294l25.7972,-25.7972zM108.26986,98.13574l-10.13412,10.13412l25.79721,25.7972l-16.43294,16.43294h43v-43l-16.43294,16.43294z"></path>
        </symbol>
    </defs>


    <defs>
        <symbol id="cog" viewBox="0 0 32 32">
            <path d="M 13.1875 3 L 13.03125 3.8125 L 12.4375 6.78125 C 11.484375 7.15625 10.625 7.683594 9.84375 8.3125 L 6.9375 7.3125 L 6.15625 7.0625 L 5.75 7.78125 L 3.75 11.21875 L 3.34375 11.9375 L 3.9375 12.46875 L 6.1875 14.4375 C 6.105469 14.949219 6 15.460938 6 16 C 6 16.539063 6.105469 17.050781 6.1875 17.5625 L 3.9375 19.53125 L 3.34375 20.0625 L 3.75 20.78125 L 5.75 24.21875 L 6.15625 24.9375 L 6.9375 24.6875 L 9.84375 23.6875 C 10.625 24.316406 11.484375 24.84375 12.4375 25.21875 L 13.03125 28.1875 L 13.1875 29 L 18.8125 29 L 18.96875 28.1875 L 19.5625 25.21875 C 20.515625 24.84375 21.375 24.316406 22.15625 23.6875 L 25.0625 24.6875 L 25.84375 24.9375 L 26.25 24.21875 L 28.25 20.78125 L 28.65625 20.0625 L 28.0625 19.53125 L 25.8125 17.5625 C 25.894531 17.050781 26 16.539063 26 16 C 26 15.460938 25.894531 14.949219 25.8125 14.4375 L 28.0625 12.46875 L 28.65625 11.9375 L 28.25 11.21875 L 26.25 7.78125 L 25.84375 7.0625 L 25.0625 7.3125 L 22.15625 8.3125 C 21.375 7.683594 20.515625 7.15625 19.5625 6.78125 L 18.96875 3.8125 L 18.8125 3 Z M 14.8125 5 L 17.1875 5 L 17.6875 7.59375 L 17.8125 8.1875 L 18.375 8.375 C 19.511719 8.730469 20.542969 9.332031 21.40625 10.125 L 21.84375 10.53125 L 22.40625 10.34375 L 24.9375 9.46875 L 26.125 11.5 L 24.125 13.28125 L 23.65625 13.65625 L 23.8125 14.25 C 23.941406 14.820313 24 15.402344 24 16 C 24 16.597656 23.941406 17.179688 23.8125 17.75 L 23.6875 18.34375 L 24.125 18.71875 L 26.125 20.5 L 24.9375 22.53125 L 22.40625 21.65625 L 21.84375 21.46875 L 21.40625 21.875 C 20.542969 22.667969 19.511719 23.269531 18.375 23.625 L 17.8125 23.8125 L 17.6875 24.40625 L 17.1875 27 L 14.8125 27 L 14.3125 24.40625 L 14.1875 23.8125 L 13.625 23.625 C 12.488281 23.269531 11.457031 22.667969 10.59375 21.875 L 10.15625 21.46875 L 9.59375 21.65625 L 7.0625 22.53125 L 5.875 20.5 L 7.875 18.71875 L 8.34375 18.34375 L 8.1875 17.75 C 8.058594 17.179688 8 16.597656 8 16 C 8 15.402344 8.058594 14.820313 8.1875 14.25 L 8.34375 13.65625 L 7.875 13.28125 L 5.875 11.5 L 7.0625 9.46875 L 9.59375 10.34375 L 10.15625 10.53125 L 10.59375 10.125 C 11.457031 9.332031 12.488281 8.730469 13.625 8.375 L 14.1875 8.1875 L 14.3125 7.59375 Z M 16 11 C 13.25 11 11 13.25 11 16 C 11 18.75 13.25 21 16 21 C 18.75 21 21 18.75 21 16 C 21 13.25 18.75 11 16 11 Z M 16 13 C 17.667969 13 19 14.332031 19 16 C 19 17.667969 17.667969 19 16 19 C 14.332031 19 13 17.667969 13 16 C 13 14.332031 14.332031 13 16 13 Z"/>        
        </symbol>
    </defs>
    <defs>
        <symbol id="plus" viewBox="0 0 455 455">
            <polygon points="455,212.5 242.5,212.5 242.5,0 212.5,0 212.5,212.5 0,212.5 0,242.5 212.5,242.5 212.5,455 242.5,455 242.5,242.5 455,242.5 "/>
        </symbol>
    </defs>
    <defs>
        <symbol id="sort" viewBox="0 0 24 24">
            <path d="M13.4697 7.53033C13.7626 7.82322 14.2374 7.82322 14.5303 7.53033L15.25 6.81066L15.25 17C15.25 17.4142 15.5858 17.75 16 17.75C16.4142 17.75 16.75 17.4142 16.75 17L16.75 6.81066L17.4697 7.53033C17.7626 7.82322 18.2374 7.82322 18.5303 7.53033C18.8232 7.23744 18.8232 6.76256 18.5303 6.46967L16.5303 4.46967C16.2374 4.17678 15.7626 4.17678 15.4697 4.46967L13.4697 6.46967C13.1768 6.76256 13.1768 7.23744 13.4697 7.53033Z" fill="inherit"/>
            <path d="M8.75 17.1893L9.46967 16.4697C9.76256 16.1768 10.2374 16.1768 10.5303 16.4697C10.8232 16.7626 10.8232 17.2374 10.5303 17.5303L8.53033 19.5303C8.23744 19.8232 7.76256 19.8232 7.46967 19.5303L5.46967 17.5303C5.17678 17.2374 5.17678 16.7626 5.46967 16.4697C5.76256 16.1768 6.23744 16.1768 6.53033 16.4697L7.25 17.1893L7.25 7C7.25 6.58579 7.58579 6.25 8 6.25C8.41421 6.25 8.75 6.58579 8.75 7L8.75 17.1893Z" fill="inherit"/>
        </symbol>
    </defs>
</svg>